#Comment line ignore any data following # character 
#Hierarchical Translation and Rotation (.htr) file 
[Header]	
#Header keywords are followed by a single value 
FileType HTR		#Single word string
DataType HTRS		#Translation followed by rotation and scale data
FileVersion 1		#integer
NumSegments 84		#integer
NumFrames 2		#integer
DataFrameRate 30		#integer, data frame rate in this file
EulerRotationOrder ZYX
CalibrationUnits mm
RotationUnits Degrees
GlobalAxisofGravity Y
BoneLengthAxis Y
ScaleFactor 1.00
[SegmentNames&Hierarchy]
#CHILD	PARENT
MASTER GLOBAL
root MASTER
chest root
L_mid_tent01 root
R_mid_tent01 root
spine01 root
Bip01_Neck chest
L_humerus chest
R_humerus chest
weapon_bone chest
Bip01_Head Bip01_Neck
eye_left_bone Bip01_Head
eye_right_bone Bip01_Head
L_forearm L_humerus
L_front_hand L_forearm
L_weapon_bone L_forearm
L_front_hand01_01 L_front_hand
L_front_hand02_01 L_front_hand
L_front_hand03_01 L_front_hand
L_front_hand01_02 L_front_hand01_01
L_front_hand02_02 L_front_hand02_01
L_front_hand03_02 L_front_hand03_01
R_forearm R_humerus
R_front_hand R_forearm
R_weapon_bone R_forearm
R_front_hand01_01 R_front_hand
R_front_hand02_01 R_front_hand
R_front_hand03_01 R_front_hand
R_front_hand01_02 R_front_hand01_01
R_front_hand02_02 R_front_hand02_01
R_front_hand03_02 R_front_hand03_01
null_rope01_connect L_mid_tent01
Rope1_Seg01 null_rope01_connect
Rope1_Seg02 Rope1_Seg01
Rope1_Seg03 Rope1_Seg02
Rope1_Seg04 Rope1_Seg03
Rope1_Seg05 Rope1_Seg04
Rope1_Seg06 Rope1_Seg05
Rope1_Seg07 Rope1_Seg06
Rope1_Seg09 Rope1_Seg07
L_mid_hand01 Rope1_Seg09
L_mid_hand02 Rope1_Seg09
L_mid_hand03 Rope1_Seg09
null_rope02_connect R_mid_tent01
Rope2_Seg01 null_rope02_connect
Rope2_Seg02 Rope2_Seg01
Rope2_Seg03 Rope2_Seg02
Rope2_Seg04 Rope2_Seg03
Rope2_Seg05 Rope2_Seg04
Rope2_Seg06 Rope2_Seg05
Rope2_Seg07 Rope2_Seg06
Rope2_Seg09 Rope2_Seg07
R_mid_hand01 Rope2_Seg09
R_mid_hand02 Rope2_Seg09
R_mid_hand03 Rope2_Seg09
spine02 spine01
spine03 spine02
pelvis spine03
null_rope03_connect pelvis
null_rope04_connect pelvis
Rope3_Seg01 null_rope03_connect
Rope3_Seg02 Rope3_Seg01
Rope3_Seg03 Rope3_Seg02
Rope3_Seg04 Rope3_Seg03
Rope3_Seg05 Rope3_Seg04
Rope3_Seg06 Rope3_Seg05
Rope3_Seg07 Rope3_Seg06
Rope3_Seg08 Rope3_Seg07
Rope3_Seg09 Rope3_Seg08
R_rear_hand01 Rope3_Seg09
R_rear_hand02 Rope3_Seg09
R_rear_hand03 Rope3_Seg09
Rope4_Seg01 null_rope04_connect
Rope4_Seg02 Rope4_Seg01
Rope4_Seg03 Rope4_Seg02
Rope4_Seg04 Rope4_Seg03
Rope4_Seg05 Rope4_Seg04
Rope4_Seg06 Rope4_Seg05
Rope4_Seg07 Rope4_Seg06
Rope4_Seg08 Rope4_Seg07
Rope4_Seg09 Rope4_Seg08
L_rear_hand01 Rope4_Seg09
L_rear_hand02 Rope4_Seg09
L_rear_hand03 Rope4_Seg09
[BasePosition]
#SegmentName Tx, Ty, Tz, Rx, Ry, Rz, BoneLength
MASTER 0.000000 0.000000 0.000000 -90.000000 0.000000 0.000000 10.000000 
root 0.000000 0.000000 0.000000 0.000000 0.000000 0.000000 10.000000 
chest 0.000000 0.000000 0.000000 0.000000 0.000000 0.000000 10.000000 
L_mid_tent01 0.000000 0.000000 0.000000 0.000000 0.000000 0.000000 10.000000 
R_mid_tent01 0.000000 0.000000 0.000000 0.000000 0.000000 0.000000 10.000000 
spine01 0.000000 0.000000 0.000000 0.000000 0.000000 0.000000 10.000000 
Bip01_Neck 0.000000 0.000000 0.000000 0.000000 0.000000 0.000000 10.000000 
L_humerus 0.000000 0.000000 0.000000 0.000000 0.000000 0.000000 10.000000 
R_humerus 0.000000 0.000000 0.000000 0.000000 0.000000 0.000000 10.000000 
weapon_bone 0.000000 0.000000 0.000000 0.000000 0.000000 0.000000 10.000000 
Bip01_Head 0.000000 0.000000 0.000000 0.000000 0.000000 0.000000 10.000000 
eye_left_bone 0.000000 0.000000 0.000000 0.000000 0.000000 0.000000 10.000000 
eye_right_bone 0.000000 0.000000 0.000000 0.000000 0.000000 0.000000 10.000000 
L_forearm 0.000000 0.000000 0.000000 0.000000 0.000000 0.000000 10.000000 
L_front_hand 0.000000 0.000000 0.000000 0.000000 0.000000 0.000000 10.000000 
L_weapon_bone 0.000000 0.000000 0.000000 0.000000 0.000000 0.000000 10.000000 
L_front_hand01_01 0.000000 0.000000 0.000000 0.000000 0.000000 0.000000 10.000000 
L_front_hand02_01 0.000000 0.000000 0.000000 0.000000 0.000000 0.000000 10.000000 
L_front_hand03_01 0.000000 0.000000 0.000000 0.000000 0.000000 0.000000 10.000000 
L_front_hand01_02 0.000000 0.000000 0.000000 0.000000 0.000000 0.000000 10.000000 
L_front_hand02_02 0.000000 0.000000 0.000000 0.000000 0.000000 0.000000 10.000000 
L_front_hand03_02 0.000000 0.000000 0.000000 0.000000 0.000000 0.000000 10.000000 
R_forearm 0.000000 0.000000 0.000000 0.000000 0.000000 0.000000 10.000000 
R_front_hand 0.000000 0.000000 0.000000 0.000000 0.000000 0.000000 10.000000 
R_weapon_bone 0.000000 0.000000 0.000000 0.000000 0.000000 0.000000 10.000000 
R_front_hand01_01 0.000000 0.000000 0.000000 0.000000 0.000000 0.000000 10.000000 
R_front_hand02_01 0.000000 0.000000 0.000000 0.000000 0.000000 0.000000 10.000000 
R_front_hand03_01 0.000000 0.000000 0.000000 0.000000 0.000000 0.000000 10.000000 
R_front_hand01_02 0.000000 0.000000 0.000000 0.000000 0.000000 0.000000 10.000000 
R_front_hand02_02 0.000000 0.000000 0.000000 0.000000 0.000000 0.000000 10.000000 
R_front_hand03_02 0.000000 0.000000 0.000000 0.000000 0.000000 0.000000 10.000000 
null_rope01_connect 0.000000 0.000000 0.000000 0.000000 0.000000 0.000000 10.000000 
Rope1_Seg01 0.000000 0.000000 0.000000 0.000000 0.000000 0.000000 10.000000 
Rope1_Seg02 0.000000 0.000000 0.000000 0.000000 0.000000 0.000000 10.000000 
Rope1_Seg03 0.000000 0.000000 0.000000 0.000000 0.000000 0.000000 10.000000 
Rope1_Seg04 0.000000 0.000000 0.000000 0.000000 0.000000 0.000000 10.000000 
Rope1_Seg05 0.000000 0.000000 0.000000 0.000000 0.000000 0.000000 10.000000 
Rope1_Seg06 0.000000 0.000000 0.000000 0.000000 0.000000 0.000000 10.000000 
Rope1_Seg07 0.000000 0.000000 0.000000 0.000000 0.000000 0.000000 10.000000 
Rope1_Seg09 0.000000 0.000000 0.000000 0.000000 0.000000 0.000000 10.000000 
L_mid_hand01 0.000000 0.000000 0.000000 0.000000 0.000000 0.000000 10.000000 
L_mid_hand02 0.000000 0.000000 0.000000 0.000000 0.000000 0.000000 10.000000 
L_mid_hand03 0.000000 0.000000 0.000000 0.000000 0.000000 0.000000 10.000000 
null_rope02_connect 0.000000 0.000000 0.000000 0.000000 0.000000 0.000000 10.000000 
Rope2_Seg01 0.000000 0.000000 0.000000 0.000000 0.000000 0.000000 10.000000 
Rope2_Seg02 0.000000 0.000000 0.000000 0.000000 0.000000 0.000000 10.000000 
Rope2_Seg03 0.000000 0.000000 0.000000 0.000000 0.000000 0.000000 10.000000 
Rope2_Seg04 0.000000 0.000000 0.000000 0.000000 0.000000 0.000000 10.000000 
Rope2_Seg05 0.000000 0.000000 0.000000 0.000000 0.000000 0.000000 10.000000 
Rope2_Seg06 0.000000 0.000000 0.000000 0.000000 0.000000 0.000000 10.000000 
Rope2_Seg07 0.000000 0.000000 0.000000 0.000000 0.000000 0.000000 10.000000 
Rope2_Seg09 0.000000 0.000000 0.000000 0.000000 0.000000 0.000000 10.000000 
R_mid_hand01 0.000000 0.000000 0.000000 0.000000 0.000000 0.000000 10.000000 
R_mid_hand02 0.000000 0.000000 0.000000 0.000000 0.000000 0.000000 10.000000 
R_mid_hand03 0.000000 0.000000 0.000000 0.000000 0.000000 0.000000 10.000000 
spine02 0.000000 0.000000 0.000000 0.000000 0.000000 0.000000 10.000000 
spine03 0.000000 0.000000 0.000000 0.000000 0.000000 0.000000 10.000000 
pelvis 0.000000 0.000000 0.000000 0.000000 0.000000 0.000000 10.000000 
null_rope03_connect 0.000000 0.000000 0.000000 0.000000 0.000000 0.000000 10.000000 
null_rope04_connect 0.000000 0.000000 0.000000 0.000000 0.000000 0.000000 10.000000 
Rope3_Seg01 0.000000 0.000000 0.000000 0.000000 0.000000 0.000000 10.000000 
Rope3_Seg02 0.000000 0.000000 0.000000 0.000000 0.000000 0.000000 10.000000 
Rope3_Seg03 0.000000 0.000000 0.000000 0.000000 0.000000 0.000000 10.000000 
Rope3_Seg04 0.000000 0.000000 0.000000 0.000000 0.000000 0.000000 10.000000 
Rope3_Seg05 0.000000 0.000000 0.000000 0.000000 0.000000 0.000000 10.000000 
Rope3_Seg06 0.000000 0.000000 0.000000 0.000000 0.000000 0.000000 10.000000 
Rope3_Seg07 0.000000 0.000000 0.000000 0.000000 0.000000 0.000000 10.000000 
Rope3_Seg08 0.000000 0.000000 0.000000 0.000000 0.000000 0.000000 10.000000 
Rope3_Seg09 0.000000 0.000000 0.000000 0.000000 0.000000 0.000000 10.000000 
R_rear_hand01 0.000000 0.000000 0.000000 0.000000 0.000000 0.000000 10.000000 
R_rear_hand02 0.000000 0.000000 0.000000 0.000000 0.000000 0.000000 10.000000 
R_rear_hand03 0.000000 0.000000 0.000000 0.000000 0.000000 0.000000 10.000000 
Rope4_Seg01 0.000000 0.000000 0.000000 0.000000 0.000000 0.000000 10.000000 
Rope4_Seg02 0.000000 0.000000 0.000000 0.000000 0.000000 0.000000 10.000000 
Rope4_Seg03 0.000000 0.000000 0.000000 0.000000 0.000000 0.000000 10.000000 
Rope4_Seg04 0.000000 0.000000 0.000000 0.000000 0.000000 0.000000 10.000000 
Rope4_Seg05 0.000000 0.000000 0.000000 0.000000 0.000000 0.000000 10.000000 
Rope4_Seg06 0.000000 0.000000 0.000000 0.000000 0.000000 0.000000 10.000000 
Rope4_Seg07 0.000000 0.000000 0.000000 0.000000 0.000000 0.000000 10.000000 
Rope4_Seg08 0.000000 0.000000 0.000000 0.000000 0.000000 0.000000 10.000000 
Rope4_Seg09 0.000000 0.000000 0.000000 0.000000 0.000000 0.000000 10.000000 
L_rear_hand01 0.000000 0.000000 0.000000 0.000000 0.000000 0.000000 10.000000 
L_rear_hand02 0.000000 0.000000 0.000000 0.000000 0.000000 0.000000 10.000000 
L_rear_hand03 0.000000 0.000000 0.000000 0.000000 0.000000 0.000000 10.000000 
#Beginning of Data. Separated by tabs
#Fr	Tx	Ty	Tz	Rx	Ry	Rz	SF
[MASTER]
32 2231.153809 -7836.955566 589.861755 0.000000 -0.002347 -90.000000 8169.691406
33 2095.084473 -8116.474121 516.385376 0.000000 -0.002347 -90.000000 8398.403320
[root]
32 -85.672066 4.712266 1004.092224 -112.961723 -20.023352 169.597168 1007.751465
33 -82.407799 6.396556 1074.936279 -110.316170 -19.978466 167.241928 1078.109497
[chest]
32 -84.512650 -34.090519 0.000000 -31.860966 0.269313 178.877335 91.129311
33 -84.512650 -34.090519 0.000000 -26.530781 0.272738 -179.913544 91.129311
[L_mid_tent01]
32 27.300011 22.177563 -249.918259 -6.060740 7.468156 -28.636440 252.381195
33 27.300028 22.177563 -249.918259 -4.784689 4.277284 -21.692205 252.381210
[R_mid_tent01]
32 23.228794 24.509907 226.238495 161.637955 -23.110407 80.964478 228.744751
33 23.228794 24.509907 226.238495 163.540543 -25.254177 75.204292 228.744751
[spine01]
32 -0.361383 -0.195265 0.000000 0.001687 0.001632 1.890996 0.410763
33 -0.361383 -0.195265 0.000000 0.001687 0.001632 1.890996 0.410763
[Bip01_Neck]
32 165.484543 71.581718 0.000119 176.643677 -1.657967 43.431911 180.302734
33 165.484543 71.581718 0.000119 176.643677 -1.657967 43.431911 180.302734
[L_humerus]
32 -13.983130 -135.272980 -120.471481 161.074783 21.081047 -109.489319 181.680161
33 -13.983130 -135.272980 -120.471481 148.504959 33.334801 -124.097572 181.680161
[R_humerus]
32 -13.983309 -135.273102 125.287651 -176.880066 -17.087521 -86.460487 184.909012
33 -13.983309 -135.273102 125.287651 -176.510300 -31.278059 -87.358971 184.909012
[weapon_bone]
32 235.964890 -300.705902 0.000000 0.000000 -89.951546 -128.212341 382.234833
33 235.964890 -300.705902 0.000000 0.000000 -89.951546 -128.212341 382.234833
[Bip01_Head]
32 213.409531 185.812561 10.522762 -16.321495 6.150353 -43.832680 283.161896
33 213.414993 185.797302 10.719534 -14.488506 6.147135 -43.833309 283.163391
[eye_left_bone]
32 -24.626970 125.451866 -64.772606 0.000000 -90.000000 -99.840431 143.318359
33 -24.626970 125.451866 -64.772606 0.000000 -90.000000 -99.840431 143.318359
[eye_right_bone]
32 -24.626970 125.451866 64.327362 0.000000 -89.965736 80.156380 143.117676
33 -24.626970 125.451866 64.327362 0.000000 -89.965736 80.156380 143.117676
[L_forearm]
32 322.776093 0.000000 -0.000119 0.000119 -0.002344 -95.807457 322.776093
33 322.776093 0.000000 -0.000119 0.000119 -0.002344 -95.807457 322.776093
[L_front_hand]
32 241.149185 -0.042021 -3.300071 -178.667953 -1.835447 -27.422350 241.171753
33 241.149185 -0.042021 -3.300071 -178.667953 -1.835447 -27.422350 241.171753
[L_weapon_bone]
32 156.183838 0.000000 0.000000 0.000014 0.000007 0.000001 156.183838
33 156.183838 0.000000 0.000000 0.000014 0.000007 0.000001 156.183838
[L_front_hand01_01]
32 86.095154 20.947098 -0.655860 -0.366594 -0.477154 75.385574 88.609184
33 86.095154 20.947098 -0.655860 -0.366594 -0.477154 75.385574 88.609184
[L_front_hand02_01]
32 86.935165 -11.437475 24.513514 154.399796 -59.883835 -61.369587 91.046425
33 86.935165 -11.437475 24.513514 154.399811 -59.883835 -61.369606 91.046425
[L_front_hand03_01]
32 86.637497 -14.123976 -20.424902 -153.913849 58.118122 -62.702866 90.126129
33 86.637497 -14.123976 -20.424902 -153.913849 58.118130 -62.702866 90.126129
[L_front_hand01_02]
32 71.020905 -0.000179 0.000030 0.000334 -0.002323 -106.371452 71.020905
33 71.020905 -0.000179 0.000030 0.000334 -0.002323 -106.372131 71.020905
[L_front_hand02_02]
32 71.020927 -0.000119 0.000060 0.000334 -0.002323 -106.371452 71.020927
33 71.020927 -0.000119 0.000060 0.000334 -0.002323 -106.372131 71.020927
[L_front_hand03_02]
32 71.020905 -0.000060 0.000060 0.000334 -0.002323 -106.371452 71.020905
33 71.020905 -0.000060 0.000060 0.000334 -0.002323 -106.372131 71.020905
[R_forearm]
32 322.776428 -0.000060 0.000030 0.209504 0.012586 -94.339050 322.776428
33 322.776428 -0.000060 0.000030 0.209504 0.012586 -94.339050 322.776428
[R_front_hand]
32 238.847015 -0.006795 2.210259 -2.635298 -10.645461 -26.312506 238.857239
33 238.847015 -0.006795 2.210259 -2.635298 -10.645461 -26.312506 238.857239
[R_weapon_bone]
32 155.664093 0.002503 -0.000030 0.003487 0.001180 -90.988930 155.664078
33 155.664093 0.002503 -0.000030 0.003487 0.001180 -90.988930 155.664078
[R_front_hand01_01]
32 87.624611 14.231146 22.918642 -154.633484 -59.950619 61.746037 91.683487
33 87.624611 14.231146 22.918642 -154.633499 -59.950619 61.746044 91.683487
[R_front_hand02_01]
32 89.356956 14.367283 -19.491137 154.602661 58.302849 63.744389 92.579636
33 89.356956 14.367283 -19.491137 154.602661 58.302849 63.744389 92.579636
[R_front_hand03_01]
32 87.286232 -22.307278 -0.143439 0.162155 -0.423168 -75.767921 90.091743
33 87.286232 -22.307278 -0.143439 0.162155 -0.423168 -75.767921 90.091743
[R_front_hand01_02]
32 71.020905 0.000060 0.000119 0.002323 -0.000334 106.381714 71.020905
33 71.020905 0.000060 0.000119 0.002323 -0.000334 106.381714 71.020905
[R_front_hand02_02]
32 71.020844 -0.000030 -0.000119 0.002323 -0.000334 106.381714 71.020836
33 71.020844 -0.000030 -0.000119 0.002323 -0.000334 106.381714 71.020836
[R_front_hand03_02]
32 71.020905 0.000000 0.000030 0.002323 -0.000334 106.381714 71.020905
33 71.020905 0.000000 0.000030 0.002323 -0.000334 106.381714 71.020905
[null_rope01_connect]
32 328.732483 0.000000 -0.000238 126.262688 55.871849 84.598671 328.732483
33 328.732483 0.000000 -0.000238 128.222534 57.319447 78.478554 328.732483
[Rope1_Seg01]
32 0.000030 0.000688 0.000000 -97.581184 -51.826668 -138.458115 0.000689
33 0.000030 0.000710 0.000000 -107.805626 -54.148781 -133.470291 0.000711
[Rope1_Seg02]
32 139.999863 -0.000179 0.000000 -9.343971 -1.806929 -7.936805 139.999863
33 139.999863 -0.000179 0.000000 -10.119540 -0.297368 -11.904801 139.999863
[Rope1_Seg03]
32 139.999924 0.000060 -0.000060 -10.192664 0.064706 -15.493443 139.999924
33 139.999924 0.000060 -0.000060 -10.508574 5.970411 -28.249393 139.999924
[Rope1_Seg04]
32 139.999924 -0.000060 -0.000119 -10.295367 3.604148 -34.896946 139.999924
33 139.999924 -0.000060 -0.000119 -4.471859 6.966326 -38.460461 139.999924
[Rope1_Seg05]
32 139.999832 0.000119 -0.000060 -0.569929 -2.404031 -21.704023 139.999832
33 139.999832 0.000119 -0.000060 1.608067 -0.246171 -8.834491 139.999832
[Rope1_Seg06]
32 139.999954 0.000119 -0.000060 0.523879 -0.115540 -6.867643 139.999954
33 139.999954 0.000119 -0.000060 0.816419 0.341324 -3.913759 139.999954
[Rope1_Seg07]
32 139.999985 0.000060 0.000000 0.432907 -0.024434 -3.569813 139.999985
33 139.999985 0.000060 0.000000 0.537771 0.160356 -2.193627 139.999985
[Rope1_Seg09]
32 121.602913 0.000119 -0.000089 -89.793175 -1.359789 0.847147 121.602913
33 121.602913 0.000119 -0.000089 -89.793175 -1.359789 0.847147 121.602913
[L_mid_hand01]
32 103.859421 1.038730 8.195221 130.544373 -67.584534 -38.866943 104.187431
33 103.859421 1.038730 8.195221 130.544373 -67.584534 -38.866943 104.187431
[L_mid_hand02]
32 105.572853 -4.139662 -10.864139 -168.923172 43.409309 -73.498886 106.211075
33 105.572853 -4.139662 -10.864139 -168.923172 43.409309 -73.498894 106.211075
[L_mid_hand03]
32 104.641464 17.579376 -3.913581 -6.012627 17.808174 74.893669 106.179977
33 104.641464 17.579376 -3.913581 -6.012627 17.808178 74.893677 106.179977
[null_rope02_connect]
32 328.732849 0.000179 -0.000119 42.732143 -76.533501 -70.231140 328.732849
33 328.732849 0.000179 -0.000119 48.345188 -78.961220 -81.968872 328.732849
[Rope2_Seg01]
32 -0.000055 -0.000083 0.000000 110.739227 27.714703 80.017693 0.000100
33 -0.000054 -0.000080 0.000000 103.300156 20.479803 71.623856 0.000096
[Rope2_Seg02]
32 139.999741 -0.000060 -0.000119 -3.389667 -17.625994 11.997299 139.999756
33 139.999741 -0.000060 -0.000119 -1.243606 -16.955414 8.039113 139.999756
[Rope2_Seg03]
32 140.000107 0.000030 0.000000 -1.429182 -19.529341 8.591173 140.000107
33 140.000107 0.000030 0.000000 -0.780613 -18.440247 4.939884 140.000107
[Rope2_Seg04]
32 139.999802 0.000000 -0.000060 0.408165 -5.489361 7.553333 139.999802
33 139.999802 0.000000 -0.000060 0.961293 -1.190721 6.320970 139.999802
[Rope2_Seg05]
32 139.999985 -0.000060 0.000119 1.893065 5.536607 5.988844 139.999985
33 139.999985 -0.000060 0.000119 1.466096 6.591383 4.422123 139.999985
[Rope2_Seg06]
32 139.999893 -0.000030 -0.000119 0.687294 1.842615 3.248087 139.999893
33 139.999893 -0.000030 -0.000119 0.338300 1.697348 2.019897 139.999893
[Rope2_Seg07]
32 139.999893 0.000060 -0.000060 0.367862 0.830997 2.066845 139.999893
33 139.999893 0.000060 -0.000060 0.165783 0.974195 1.269238 139.999893
[Rope2_Seg09]
32 121.338966 0.000089 -0.000060 33.793236 -1.359788 -0.847141 121.338966
33 121.338966 0.000089 -0.000060 33.793236 -1.359788 -0.847141 121.338966
[R_mid_hand01]
32 104.680779 11.144459 -10.335981 -16.212063 45.237247 70.462852 105.778534
33 104.680779 11.144459 -10.335981 -16.212059 45.237247 70.462852 105.778534
[R_mid_hand02]
32 104.070427 2.443552 8.231699 49.067368 -67.749771 39.286453 104.424065
33 104.070427 2.443552 8.231699 49.067383 -67.749794 39.286465 104.424065
[R_mid_hand03]
32 106.028137 -11.221827 -5.996406 -177.101105 15.551026 -76.585571 106.788818
33 106.028137 -11.221827 -5.996406 -177.101105 15.551026 -76.585571 106.788818
[spine02]
32 129.756927 0.001550 0.000119 -1.023899 -3.926965 6.770993 129.756927
33 129.756927 0.001550 0.000119 -1.023899 -3.926965 6.770993 129.756927
[spine03]
32 78.614159 0.087503 -4.898895 1.040681 4.146420 4.212376 78.766701
33 78.614166 0.087508 -4.898896 1.040681 4.146420 4.212376 78.766708
[pelvis]
32 169.435242 0.051022 0.000000 -55.417877 -0.190181 -10.718253 169.435257
33 169.435242 0.051022 0.000000 -53.952496 -0.190422 -10.716595 169.435257
[null_rope03_connect]
32 -1.257226 -2.466202 137.391083 160.023010 7.897173 79.156250 137.418976
33 -1.257226 -2.466202 137.391083 158.886505 11.110089 76.848083 137.418976
[null_rope04_connect]
32 -1.259640 -2.480268 -137.844437 160.023010 7.897173 79.156250 137.872513
33 -1.259640 -2.480268 -137.844437 158.886505 11.110089 76.848083 137.872513
[Rope3_Seg01]
32 0.000030 0.000688 0.000000 -137.895584 33.987362 93.477379 0.000689
33 0.000030 0.000710 0.000000 -138.483658 32.184391 91.247940 0.000711
[Rope3_Seg02]
32 139.999924 -0.000119 0.000060 -0.672029 1.486295 6.490770 139.999924
33 139.999924 -0.000119 0.000060 -0.648834 1.727571 6.465117 139.999924
[Rope3_Seg03]
32 139.999924 -0.000119 0.000119 -1.996986 2.528693 11.455399 139.999924
33 139.999924 -0.000119 0.000119 -2.046031 2.628936 11.248960 139.999924
[Rope3_Seg04]
32 139.999924 0.000119 0.000000 -9.266204 4.708201 23.023483 139.999924
33 139.999924 0.000119 0.000000 -11.714190 4.133265 24.203024 139.999924
[Rope3_Seg05]
32 139.999924 -0.000238 0.000060 -62.928604 -2.886508 33.386322 139.999924
33 139.999924 -0.000238 0.000060 -43.456844 4.146469 25.798946 139.999924
[Rope3_Seg06]
32 139.999893 -0.000119 -0.000060 -25.394897 -11.636848 4.593766 139.999893
33 139.999893 -0.000119 -0.000060 -40.299179 -5.398668 8.008708 139.999893
[Rope3_Seg07]
32 139.999771 0.000060 -0.000119 -7.806451 -6.051102 -0.250265 139.999771
33 139.999771 0.000060 -0.000119 -17.058941 -5.067599 1.292784 139.999771
[Rope3_Seg08]
32 139.999985 -0.000060 0.000000 -2.927365 -3.110003 -0.557292 139.999985
33 139.999985 -0.000060 0.000000 -6.523590 -2.840037 -0.138736 139.999985
[Rope3_Seg09]
32 90.185997 -0.000179 -0.000060 89.793228 -1.359877 -0.847183 90.185997
33 90.185997 -0.000179 -0.000060 89.793228 -1.359877 -0.847183 90.185997
[R_rear_hand01]
32 103.366196 -6.073594 -10.757982 -177.714203 24.565960 -73.910950 104.101845
33 103.366196 -6.073594 -10.757982 -177.714203 24.565958 -73.910942 104.101845
[R_rear_hand02]
32 100.509819 12.039542 -7.992327 -12.874829 36.868488 72.167213 101.543350
33 100.509819 12.039542 -7.992327 -12.874833 36.868488 72.167213 101.543350
[R_rear_hand03]
32 101.539970 5.215704 5.435467 71.484581 -71.816612 21.513800 101.819031
33 101.539970 5.215704 5.435467 71.484589 -71.816643 21.513828 101.819031
[Rope4_Seg01]
32 0.000005 0.000705 -0.000153 22.641626 -47.040237 119.422195 0.000721
33 0.000006 0.000726 -0.000153 26.735888 -46.452858 114.582001 0.000742
[Rope4_Seg02]
32 139.999985 0.000060 0.000119 0.661487 -8.103815 -5.456567 139.999985
33 139.999985 0.000060 0.000119 0.740520 -8.440372 -6.304720 139.999985
[Rope4_Seg03]
32 139.999924 0.000000 -0.000238 0.763080 -11.840399 -7.954840 139.999924
33 139.999924 0.000000 -0.000238 0.654009 -11.874228 -8.701689 139.999924
[Rope4_Seg04]
32 139.999985 0.000000 0.000119 0.522201 -13.447970 -7.874563 139.999985
33 139.999985 0.000000 0.000119 0.764788 -13.490319 -6.571561 139.999985
[Rope4_Seg05]
32 139.999802 -0.000060 -0.000119 -1.402654 -15.826697 -11.850128 139.999802
33 139.999802 -0.000060 -0.000119 -4.142138 -13.973033 -14.149117 139.999802
[Rope4_Seg06]
32 139.999924 0.000000 0.000060 -18.595367 -19.353987 -19.859474 139.999924
33 139.999924 0.000000 0.000060 -27.978018 -11.842237 -23.394506 139.999924
[Rope4_Seg07]
32 139.999802 0.000000 0.000000 -53.202877 -7.068373 -15.789342 139.999802
33 139.999802 0.000000 0.000000 -30.830542 0.092699 -14.747038 139.999802
[Rope4_Seg08]
32 139.999924 0.000000 0.000119 -30.575594 3.887858 -7.035208 139.999924
33 139.999924 0.000000 0.000119 -16.386869 3.530731 -6.178039 139.999924
[Rope4_Seg09]
32 90.185791 0.000060 0.000060 -135.617828 2.228885 0.850567 90.185791
33 90.185791 0.000060 0.000060 -135.617828 2.228885 0.850567 90.185791
[L_rear_hand01]
32 101.696655 -8.392275 -7.654577 -12.874829 -36.868488 107.832764 102.329041
33 101.696655 -8.392275 -7.654577 -12.874833 -36.868488 107.832779 102.329041
[L_rear_hand02]
32 102.726799 -1.568258 5.773216 71.484581 71.816628 158.486160 102.900848
33 102.726799 -1.568258 5.773216 71.484581 71.816628 158.486145 102.900848
[L_rear_hand03]
32 104.552910 9.721220 -10.420293 -177.714203 -24.565960 -106.089035 105.519653
33 104.552910 9.721220 -10.420293 -177.714203 -24.565960 -106.089035 105.519653
